# xmcd CD database file
#
# Track frame offsets:
#	150
#	15988
#	21072
#	36953
#	56325
#	70220
#	94241
#	106100
#	129675
#	145543
#	170101
#	187905
#
# Disc length: 2586 seconds
#
# Revision: 0
# Processed by: cddbd v1.5.2PL0 Copyright (c) Steve Scherf et al.
# Submitted via: CDex 1.70beta2
#
DISCID=970a180c
DTITLE=RF - NEW BIRTH
DYEAR=2014
DGENRE=Jazz
TTITLE0=Happy
TTITLE1=Space is the place
TTITLE2=Be Go -Resurrection-
TTITLE3=Luz da terra
TTITLE4=Smilin' Billy suite part II
TTITLE5=Mind rain
TTITLE6=Dance of the living image
TTITLE7=Limit to your love
TTITLE8=Blessing song
TTITLE9=Trane
TTITLE10=Diamonds
TTITLE11=Doors of the cosmos
EXTD=YEAR: 2014
EXTT0=
EXTT1=
EXTT2=
EXTT3=
EXTT4=
EXTT5=
EXTT6=
EXTT7=
EXTT8=
EXTT9=
EXTT10=
EXTT11=
PLAYORDER=
